<svg width="495" height="376" viewBox="0 0 495 376" fill="none" xmlns="http://www.w3.org/2000/svg">
<path d="M396.61 369.217C396.61 369.217 478.476 338.642 470.728 281.854C460.088 203.871 397.208 197.329 394.714 156.807C391.952 111.932 404.307 58.31 351.998 31.6497C279.565 -5.26661 220.637 82.102 160.481 57.4911C48.8578 11.8243 -21.2447 153.757 45.1693 240.928C95.4684 311.133 70.9149 368.02 70.9149 368.02L396.61 369.217Z" fill="#1B2129"/>
<path d="M420.679 242.316C409.114 251.234 405.77 270.753 405.19 284.513C405.137 285.767 403.18 285.774 403.233 284.513C403.848 269.94 407.165 250.286 419.691 240.627C420.688 239.859 421.663 241.558 420.679 242.316Z" fill="#0A6B47"/>
<path d="M393.835 232.336C396.784 231.996 399.266 235.011 400.548 237.226C407.202 248.728 404.626 266.085 403.367 278.426C403.241 279.667 401.283 279.68 401.411 278.426C402.636 266.415 404.866 250.769 399.441 239.353C398.509 237.393 396.518 233.983 393.835 234.293C392.586 234.437 392.597 232.479 393.835 232.336Z" fill="#085337"/>
<path d="M386.666 248.137C399.038 245.083 400.582 272.511 400.947 278.427C401.025 279.684 399.068 279.679 398.991 278.427C398.496 270.424 398.101 258.958 392.312 252.536C391.142 251.238 389.109 249.549 387.186 250.023C385.964 250.325 385.443 248.439 386.666 248.137Z" fill="#085337"/>
<path d="M423.329 261.446C413.103 253.871 409.774 273.776 409.208 279.513C409.086 280.755 407.128 280.768 407.252 279.513C407.894 273.004 408.883 261.211 416.403 258.476C417.729 258.043 419.139 257.934 420.515 258.156C421.892 258.379 423.195 258.928 424.317 259.757C425.317 260.498 424.343 262.197 423.329 261.446Z" fill="#085337"/>
<path d="M382.648 265.039C383.423 264.224 384.375 263.599 385.431 263.214C386.488 262.829 387.619 262.695 388.736 262.82C394.974 263.868 396.706 273.281 397.652 278.166C397.89 279.396 396.005 279.923 395.766 278.686C394.949 274.471 391.018 259.355 384.032 266.422C383.145 267.319 381.762 265.935 382.648 265.039Z" fill="#0A6B47"/>
<path d="M419.487 329.189H389.902C387.239 326.939 385.099 324.135 383.632 320.973C382.165 317.81 381.406 314.366 381.408 310.88C381.408 302.49 386.124 277.32 386.124 277.32H423.266C423.266 277.32 427.981 302.49 427.981 310.88C427.983 314.366 427.224 317.81 425.757 320.973C424.29 324.135 422.15 326.939 419.487 329.189Z" fill="#353941"/>
<path d="M424.194 271.098C415.272 271.098 406.542 267.482 404.694 263.021C402.846 258.56 408.581 254.944 417.503 254.944C420.38 254.949 423.245 255.315 426.031 256.033C428.501 255.273 431.074 254.905 433.657 254.944C442.579 254.944 451.31 258.56 453.157 263.021C455.005 267.482 449.271 271.098 440.349 271.098H424.194Z" fill="#E8FDF5"/>
<path d="M365.98 253.806C358.683 253.806 355.725 250.848 359.373 247.199C363.022 243.551 371.896 240.593 379.194 240.593C381.138 240.529 383.077 240.831 384.91 241.484C387.369 240.916 389.883 240.617 392.407 240.593C399.705 240.593 402.663 243.551 399.014 247.199C395.365 250.848 386.492 253.806 379.194 253.806H365.98Z" fill="#DCFCF0"/>
<path d="M433.096 247.199C423.915 247.199 412.75 243.478 408.16 238.887C403.569 234.296 407.291 230.575 416.472 230.575C419.648 230.605 422.811 230.981 425.905 231.696C428.211 230.875 430.65 230.494 433.097 230.575C442.278 230.575 453.443 234.296 458.033 238.887C462.624 243.478 458.903 247.199 449.721 247.199H433.096Z" fill="#B7FAE1"/>
<path d="M382.054 236.466C377.463 236.466 374.512 234.605 375.463 232.31C376.414 230.014 380.906 228.154 385.497 228.154C386.826 228.134 388.15 228.323 389.421 228.714C390.855 228.345 392.329 228.156 393.809 228.154C398.4 228.154 401.351 230.014 400.4 232.31C399.449 234.605 394.957 236.466 390.366 236.466H382.054Z" fill="#DCFCF0"/>
<path d="M376.761 269.719C372.17 269.719 367.678 267.858 366.727 265.563C365.776 263.267 368.727 261.407 373.318 261.407C374.798 261.409 376.272 261.598 377.706 261.967C378.977 261.576 380.301 261.387 381.63 261.407C386.221 261.407 390.713 263.267 391.664 265.563C392.615 267.858 389.664 269.719 385.073 269.719H376.761Z" fill="#B7FAE1"/>
<path d="M385.281 281.98C385.78 279.152 386.123 277.32 386.123 277.32H423.266C423.266 277.32 423.608 279.152 424.108 281.98H385.281Z" fill="#4E5258"/>
<path d="M383.666 243.09C383.666 243.09 373.477 246.486 370.25 252.091C370.25 252.091 370.759 243.939 383.666 243.09Z" fill="#085337"/>
<path d="M388.461 229.762C386.821 230.713 385.374 231.962 384.195 233.446C384.476 232.487 385.028 231.629 385.785 230.975C386.542 230.322 387.471 229.901 388.461 229.762Z" fill="#085337"/>
<path d="M427.98 233.446C427.98 233.446 439.021 237.485 445.814 245.128C445.814 245.128 440.546 234.502 427.98 233.446Z" fill="#085337"/>
<path d="M427.98 258.03C432.568 259.943 436.557 263.053 439.531 267.036C439.531 267.036 437.489 259.383 427.98 258.03Z" fill="#085337"/>
<path d="M377.885 263.634C378.703 264.063 379.398 264.695 379.904 265.468C380.409 266.242 380.708 267.132 380.772 268.054C379.422 266.874 378.423 265.345 377.885 263.634Z" fill="#085337"/>
<path d="M350.027 119.365H327.477V129.932H338.752C338.752 129.296 338.877 128.667 339.12 128.079C339.364 127.492 339.72 126.959 340.17 126.509C340.619 126.06 341.153 125.703 341.74 125.46C342.327 125.217 342.956 125.092 343.592 125.092H350.027V119.365Z" fill="#E0E0E0"/>
<path d="M339.837 119.365H323.4V129.932H328.562C328.562 129.296 328.687 128.667 328.93 128.079C329.174 127.492 329.53 126.959 329.98 126.509C330.429 126.06 330.963 125.703 331.55 125.46C332.137 125.217 332.766 125.092 333.402 125.092H339.837V119.365Z" fill="#F5F5F5"/>
<path d="M222.902 76.6941H155.498V224.41H222.902V76.6941Z" fill="#4E5258"/>
<path d="M155.497 76.6941H88.0938V224.41H155.497V76.6941Z" fill="#4E5258"/>
<path d="M192.516 318.622H215.066V329.189H203.791C203.791 327.905 203.281 326.674 202.373 325.766C201.466 324.859 200.234 324.349 198.951 324.349H192.516V318.622Z" fill="#292C32"/>
<path d="M118.48 318.622H95.9297V329.189H107.205C107.205 327.905 107.715 326.674 108.623 325.766C109.53 324.859 110.761 324.349 112.045 324.349H118.48V318.622Z" fill="#292C32"/>
<path d="M222.901 224.409H88.0938V270.942H222.901V224.409Z" fill="#4E5258"/>
<path d="M222.901 270.943H88.0938V317.476H222.901V270.943Z" fill="#4E5258"/>
<path d="M222.9 231.566V226.858H88.0934V231.566H222.9Z" fill="#353941"/>
<path d="M155.498 83.4398V78.7319H88.0945V83.4398H155.498Z" fill="#353941"/>
<path d="M222.9 83.4398V78.7319H155.497V83.4398H222.9Z" fill="#353941"/>
<path d="M222.9 277.736V273.028H88.0934V277.736H222.9Z" fill="#353941"/>
<path d="M222.901 74.3401H85.7402V319.509H225.255V74.3401H222.901ZM220.547 227.297V268.695H90.4481V227.297H220.547ZM157.852 222.589V79.0479H220.547V222.589H157.852ZM153.144 79.0479V222.589H90.4481V79.0479H153.144ZM90.4481 314.801V273.403H220.547V314.801H90.4481Z" fill="#353941"/>
<path d="M108.291 318.622H85.7402V329.189H97.0154C97.0154 327.905 97.5254 326.674 98.4331 325.766C99.3408 324.859 100.572 324.349 101.856 324.349H108.291V318.622Z" fill="#4E5258"/>
<path d="M202.705 318.622H225.256V329.189H213.98C213.98 327.905 213.47 326.674 212.563 325.766C211.655 324.859 210.424 324.349 209.14 324.349H202.705V318.622Z" fill="#4E5258"/>
<path d="M161.274 251.752C161.274 252.894 160.935 254.011 160.301 254.961C159.666 255.911 158.764 256.652 157.708 257.089C156.653 257.526 155.491 257.641 154.37 257.418C153.25 257.195 152.221 256.645 151.413 255.837C150.605 255.029 150.055 253.999 149.832 252.879C149.609 251.758 149.723 250.597 150.16 249.541C150.598 248.486 151.338 247.583 152.288 246.949C153.238 246.314 154.355 245.975 155.498 245.975C156.256 245.975 157.007 246.125 157.708 246.415C158.409 246.705 159.046 247.131 159.582 247.667C160.119 248.204 160.544 248.84 160.835 249.541C161.125 250.242 161.274 250.993 161.274 251.752Z" fill="#353941"/>
<path d="M161.274 247.676C161.274 248.819 160.935 249.935 160.301 250.885C159.666 251.835 158.764 252.576 157.708 253.013C156.653 253.45 155.491 253.565 154.37 253.342C153.25 253.119 152.221 252.569 151.413 251.761C150.605 250.953 150.055 249.924 149.832 248.803C149.609 247.682 149.723 246.521 150.16 245.465C150.598 244.41 151.338 243.507 152.288 242.873C153.238 242.238 154.355 241.899 155.498 241.899C156.256 241.899 157.007 242.049 157.708 242.339C158.409 242.629 159.046 243.055 159.582 243.591C160.119 244.128 160.544 244.764 160.835 245.465C161.125 246.166 161.274 246.917 161.274 247.676Z" fill="#676B70"/>
<path d="M161.274 298.285C161.274 299.427 160.936 300.544 160.301 301.494C159.666 302.444 158.764 303.185 157.708 303.622C156.653 304.059 155.491 304.174 154.371 303.951C153.25 303.728 152.221 303.178 151.413 302.37C150.605 301.562 150.055 300.532 149.832 299.412C149.609 298.291 149.723 297.13 150.16 296.074C150.598 295.019 151.338 294.116 152.288 293.482C153.238 292.847 154.355 292.508 155.498 292.508C157.03 292.508 158.499 293.117 159.582 294.2C160.666 295.283 161.274 296.753 161.274 298.285Z" fill="#E0E0E0"/>
<path d="M161.274 294.209C161.274 295.351 160.936 296.468 160.301 297.418C159.666 298.368 158.764 299.109 157.708 299.546C156.653 299.983 155.491 300.098 154.371 299.875C153.25 299.652 152.221 299.102 151.413 298.294C150.605 297.486 150.055 296.456 149.832 295.336C149.609 294.215 149.723 293.054 150.16 291.998C150.598 290.943 151.338 290.04 152.288 289.406C153.238 288.771 154.355 288.432 155.498 288.432C157.03 288.432 158.499 289.041 159.582 290.124C160.666 291.207 161.274 292.677 161.274 294.209Z" fill="#F5F5F5"/>
<path d="M147.863 147.663C147.863 146.897 147.558 146.163 147.017 145.621C146.475 145.079 145.74 144.775 144.974 144.775C144.208 144.775 143.474 145.079 142.932 145.621C142.39 146.163 142.086 146.897 142.086 147.663V157.516C142.086 158.282 142.39 159.017 142.932 159.558C143.474 160.1 144.208 160.404 144.974 160.404C145.74 160.404 146.475 160.1 147.017 159.558C147.558 159.017 147.863 158.282 147.863 157.516V147.663Z" fill="#353941"/>
<path d="M147.863 143.587C147.863 142.821 147.558 142.087 147.017 141.545C146.475 141.003 145.74 140.699 144.974 140.699C144.208 140.699 143.474 141.003 142.932 141.545C142.39 142.087 142.086 142.821 142.086 143.587V153.44C142.086 154.206 142.39 154.941 142.932 155.483C143.474 156.024 144.208 156.329 144.974 156.329C145.74 156.329 146.475 156.024 147.017 155.483C147.558 154.941 147.863 154.206 147.863 153.44V143.587Z" fill="#676B70"/>
<path d="M169.088 147.663C169.088 146.897 168.783 146.163 168.241 145.621C167.7 145.079 166.965 144.775 166.199 144.775C165.433 144.775 164.698 145.079 164.157 145.621C163.615 146.163 163.311 146.897 163.311 147.663V157.516C163.311 158.282 163.615 159.017 164.157 159.559C164.698 160.1 165.433 160.405 166.199 160.405C166.965 160.405 167.7 160.1 168.241 159.559C168.783 159.017 169.088 158.282 169.088 157.516V147.663Z" fill="#353941"/>
<path d="M169.088 143.587C169.088 142.821 168.783 142.087 168.241 141.545C167.7 141.003 166.965 140.699 166.199 140.699C165.433 140.699 164.698 141.003 164.157 141.545C163.615 142.087 163.311 142.821 163.311 143.587V153.44C163.311 154.206 163.615 154.941 164.157 155.483C164.698 156.024 165.433 156.329 166.199 156.329C166.965 156.329 167.7 156.024 168.241 155.483C168.783 154.941 169.088 154.206 169.088 153.44V143.587Z" fill="#676B70"/>
<path d="M350.027 163.366H327.477V173.933H338.752C338.752 173.298 338.877 172.668 339.12 172.081C339.364 171.494 339.72 170.96 340.169 170.511C340.619 170.061 341.153 169.705 341.74 169.461C342.327 169.218 342.956 169.093 343.592 169.093H350.027V163.366Z" fill="#E0E0E0"/>
<path d="M339.837 163.366H323.4V173.933H328.562C328.562 173.298 328.687 172.668 328.93 172.081C329.174 171.494 329.53 170.96 329.979 170.511C330.429 170.061 330.963 169.705 331.55 169.461C332.137 169.218 332.766 169.093 333.402 169.093H339.837V163.366Z" fill="#F5F5F5"/>
<path d="M249.829 375.757C358.942 375.757 447.396 370.591 447.396 364.219C447.396 357.846 358.942 352.681 249.829 352.681C140.716 352.681 52.2617 357.846 52.2617 364.219C52.2617 370.591 140.716 375.757 249.829 375.757Z" fill="#1B2129"/>
<path d="M336.451 334.678H229.78C227.727 334.701 225.691 334.299 223.8 333.498C221.909 332.697 220.204 331.514 218.792 330.023C217.379 328.533 216.29 326.767 215.592 324.835C214.894 322.904 214.602 320.85 214.734 318.801L228.594 54.3417C228.858 50.0737 230.728 46.0641 233.828 43.1186C236.928 40.1731 241.028 38.5101 245.304 38.4638H351.975C354.029 38.4415 356.065 38.8435 357.955 39.6446C359.846 40.4457 361.551 41.6285 362.964 43.1191C364.376 44.6096 365.465 46.3758 366.164 48.3069C366.862 50.238 367.154 52.2925 367.021 54.3417L353.161 318.801C352.897 323.069 351.027 327.078 347.927 330.024C344.827 332.969 340.727 334.632 336.451 334.678Z" fill="#1FA3ED"/>
<path d="M351.418 49.1118H244.746C242.035 49.1441 239.437 50.1998 237.472 52.0672C235.506 53.9346 234.319 56.4759 234.149 59.1815L220.796 313.96C220.714 315.259 220.9 316.562 221.343 317.786C221.787 319.01 222.478 320.129 223.373 321.074C224.269 322.019 225.349 322.769 226.548 323.278C227.746 323.787 229.037 324.042 230.338 324.03H337.01C339.721 323.998 342.319 322.942 344.285 321.075C346.25 319.207 347.437 316.666 347.607 313.96L360.96 59.1815C361.042 57.8823 360.856 56.58 360.413 55.356C359.969 54.132 359.278 53.0125 358.383 52.0675C357.487 51.1225 356.407 50.3723 355.208 49.8638C354.01 49.3552 352.719 49.0992 351.418 49.1118Z" fill="#1FA3ED"/>
<path opacity="0.8" d="M351.418 49.1118H244.746C242.035 49.1441 239.437 50.1998 237.472 52.0672C235.506 53.9346 234.319 56.4759 234.149 59.1815L220.796 313.96C220.714 315.259 220.9 316.562 221.343 317.786C221.787 319.01 222.478 320.129 223.373 321.074C224.269 322.019 225.349 322.769 226.548 323.278C227.746 323.787 229.037 324.042 230.338 324.03H337.01C339.721 323.998 342.319 322.942 344.285 321.075C346.25 319.207 347.437 316.666 347.607 313.96L360.96 59.1815C361.042 57.8823 360.856 56.58 360.413 55.356C359.969 54.132 359.278 53.0125 358.383 52.0675C357.487 51.1225 356.407 50.3723 355.208 49.8638C354.01 49.3552 352.719 49.0992 351.418 49.1118Z" fill="white"/>
<path d="M360.689 38.4635H351.977C354.03 38.4413 356.066 38.8433 357.957 39.6443C359.848 40.4454 361.553 41.6282 362.965 43.1188C364.378 44.6094 365.467 46.3755 366.165 48.3066C366.863 50.2377 367.155 52.2922 367.023 54.3414L353.163 318.8C352.899 323.068 351.029 327.078 347.929 330.023C344.829 332.969 340.729 334.632 336.453 334.678H345.165C349.441 334.632 353.541 332.969 356.641 330.023C359.741 327.078 361.611 323.068 361.875 318.8L375.735 54.3414C375.868 52.2922 375.576 50.2377 374.877 48.3066C374.179 46.3755 373.09 44.6094 371.677 43.1188C370.265 41.6282 368.56 40.4454 366.669 39.6443C364.778 38.8433 362.743 38.4413 360.689 38.4635Z" fill="#1FA3ED"/>
<path opacity="0.4" d="M360.689 38.4635H351.977C354.03 38.4413 356.066 38.8433 357.957 39.6443C359.848 40.4454 361.553 41.6282 362.965 43.1188C364.378 44.6094 365.467 46.3755 366.165 48.3066C366.863 50.2377 367.155 52.2922 367.023 54.3414L353.163 318.8C352.899 323.068 351.029 327.078 347.929 330.023C344.829 332.969 340.729 334.632 336.453 334.678H345.165C349.441 334.632 353.541 332.969 356.641 330.023C359.741 327.078 361.611 323.068 361.875 318.8L375.735 54.3414C375.868 52.2922 375.576 50.2377 374.877 48.3066C374.179 46.3755 373.09 44.6094 371.677 43.1188C370.265 41.6282 368.56 40.4454 366.669 39.6443C364.778 38.8433 362.743 38.4413 360.689 38.4635Z" fill="white"/>
<path opacity="0.4" d="M244.732 49.1125L259.219 324.03H296.972L282.485 49.1118H244.745L244.732 49.1125Z" fill="white"/>
<path opacity="0.4" d="M303.748 324.03H312.242L297.755 49.1123H289.262L303.748 324.03Z" fill="white"/>
<path d="M250.117 33.8275H253.854C253.973 33.8234 254.085 33.7732 254.168 33.6877C254.251 33.6022 254.297 33.4879 254.297 33.3689C254.297 33.25 254.251 33.1357 254.168 33.0502C254.085 32.9646 253.973 32.9145 253.854 32.9104H250.117C249.998 32.9145 249.885 32.9646 249.803 33.0502C249.72 33.1357 249.674 33.25 249.674 33.3689C249.674 33.4879 249.72 33.6022 249.803 33.6877C249.885 33.7732 249.998 33.8234 250.117 33.8275Z" fill="#1FA3ED"/>
<path d="M222.932 64.0121C223.16 59.6506 222.981 54.9894 223.924 50.71C225.041 45.9818 227.696 41.7584 231.473 38.7028C235.25 35.6471 239.935 33.9323 244.792 33.8276C245.38 33.8077 245.383 32.8905 244.792 32.9105C240.459 32.9992 236.24 34.3158 232.626 36.7073C229.011 39.0989 226.15 42.4671 224.374 46.4205C221.976 51.8683 222.32 58.1796 222.014 64.0121C221.983 64.602 222.901 64.6003 222.932 64.0121Z" fill="#1FA3ED"/>
<path d="M306.486 103.682H282.026C280.95 103.694 279.883 103.483 278.892 103.064C277.901 102.644 277.008 102.024 276.268 101.243C275.527 100.462 274.957 99.5364 274.591 98.5244C274.225 97.5125 274.072 96.4359 274.141 95.3621L275.423 70.9018C275.562 68.6653 276.542 66.5642 278.166 65.0207C279.791 63.4772 281.939 62.6058 284.18 62.5815H308.64C309.716 62.5699 310.783 62.7805 311.773 63.2003C312.764 63.6201 313.658 64.2399 314.398 65.021C315.138 65.8021 315.709 66.7275 316.075 67.7395C316.441 68.7514 316.594 69.828 316.524 70.9018L315.242 95.3621C315.104 97.5986 314.124 99.6997 312.499 101.243C310.875 102.787 308.727 103.658 306.486 103.682Z" fill="white"/>
<path d="M290.874 86.823C289.16 84.9475 288.15 82.5363 288.013 79.9997C287.978 80.0024 287.944 80.0069 287.909 80.0069C286.919 80.0069 286.173 78.9201 286.244 77.5795C286.314 76.2389 287.173 75.152 288.163 75.152C288.249 75.1529 288.334 75.1623 288.418 75.1798C288.475 74.9596 288.537 74.7433 288.603 74.529C294.498 74.2076 297.822 72.2586 299.575 70.6739C299.951 71.4696 300.49 72.1772 301.157 72.7506C301.824 73.324 302.605 73.7503 303.449 74.0017C303.543 74.3841 303.622 74.7769 303.682 75.1798C303.767 75.1623 303.854 75.153 303.941 75.152C304.93 75.152 305.675 76.2389 305.605 77.5795C305.535 78.9201 304.676 80.0069 303.687 80.0069C303.651 80.0069 303.617 80.0024 303.582 79.9997C303.165 82.4421 302.034 84.7064 300.333 86.5081C301.727 86.9498 303.198 87.0976 304.652 86.9423C310.609 86.5955 307.465 74.343 304.258 69.9505C302.292 67.2576 301.215 66.0024 300.082 66.507C298.845 65.826 291.377 62.7415 286.547 71.7999C281.53 81.2078 280.043 89.7659 290.874 86.823Z" fill="#1FA3ED"/>
<path d="M307.285 93.4154L301.12 91.4504C301.12 91.4504 295.79 93.4976 294.525 98.5528C293.789 93.4976 288.674 91.4504 288.674 91.4504L282.303 93.4154C278.486 93.9474 276.626 97.2216 275.727 100.601C276.465 101.569 277.419 102.351 278.512 102.886C279.606 103.42 280.808 103.693 282.026 103.682H306.486C307.746 103.674 308.99 103.394 310.132 102.862C311.275 102.331 312.29 101.559 313.108 100.601C312.563 97.2216 311.046 93.9474 307.285 93.4154Z" fill="#1FA3ED"/>
<path d="M324.186 100.076C324.211 99.5945 324.202 99.1118 324.16 98.6314L326.588 96.5379C326.36 95.5261 326.006 94.5469 325.533 93.6234L322.407 93.7828C321.864 93.011 321.211 92.3225 320.47 91.7387L320.792 88.6204C319.896 88.0999 318.939 87.6941 317.941 87.4126L315.726 89.7314C315.249 89.6642 314.769 89.6302 314.287 89.6296C313.802 89.6305 313.317 89.6645 312.837 89.7314L310.865 87.4126C309.829 87.6979 308.829 88.1032 307.887 88.6204L307.883 91.7387C307.08 92.3231 306.357 93.0103 305.732 93.7828L302.622 93.6234C302.057 94.5387 301.6 95.5167 301.261 96.5378L303.471 98.6314C303.379 99.1083 303.319 99.591 303.293 100.076C303.268 100.558 303.277 101.04 303.319 101.521L300.891 103.614C301.119 104.626 301.473 105.605 301.946 106.529L305.072 106.369C305.615 107.141 306.268 107.83 307.009 108.413L306.687 111.532C307.583 112.052 308.54 112.458 309.538 112.739L311.753 110.421C312.23 110.488 312.71 110.522 313.192 110.522C313.677 110.522 314.162 110.488 314.642 110.421L316.614 112.739C317.65 112.454 318.65 112.049 319.592 111.532L319.596 108.413C320.399 107.829 321.122 107.142 321.747 106.369L324.857 106.529C325.422 105.613 325.879 104.635 326.218 103.614L324.008 101.521C324.1 101.044 324.16 100.561 324.186 100.076ZM313.568 103.352C313.144 103.357 312.724 103.274 312.334 103.108C311.944 102.943 311.592 102.699 311.301 102.391C311.009 102.084 310.784 101.72 310.64 101.321C310.496 100.923 310.436 100.499 310.463 100.076C310.518 99.1954 310.904 98.3681 311.543 97.7603C312.183 97.1526 313.029 96.8095 313.911 96.8C314.335 96.7954 314.755 96.8783 315.145 97.0436C315.535 97.2089 315.887 97.4529 316.178 97.7605C316.47 98.068 316.694 98.4324 316.839 98.8308C316.983 99.2293 317.043 99.6532 317.015 100.076C316.961 100.957 316.575 101.784 315.936 102.392C315.296 102.999 314.45 103.342 313.568 103.352Z" fill="#1FA3ED"/>
<path opacity="0.4" d="M324.186 100.076C324.211 99.5945 324.202 99.1118 324.16 98.6314L326.588 96.5379C326.36 95.5261 326.006 94.5469 325.533 93.6234L322.407 93.7828C321.864 93.011 321.211 92.3225 320.47 91.7387L320.792 88.6204C319.896 88.0999 318.939 87.6941 317.941 87.4126L315.726 89.7314C315.249 89.6642 314.769 89.6302 314.287 89.6296C313.802 89.6305 313.317 89.6645 312.837 89.7314L310.865 87.4126C309.829 87.6979 308.829 88.1032 307.887 88.6204L307.883 91.7387C307.08 92.3231 306.357 93.0103 305.732 93.7828L302.622 93.6234C302.057 94.5387 301.6 95.5167 301.261 96.5378L303.471 98.6314C303.379 99.1083 303.319 99.591 303.293 100.076C303.268 100.558 303.277 101.04 303.319 101.521L300.891 103.614C301.119 104.626 301.473 105.605 301.946 106.529L305.072 106.369C305.615 107.141 306.268 107.83 307.009 108.413L306.687 111.532C307.583 112.052 308.54 112.458 309.538 112.739L311.753 110.421C312.23 110.488 312.71 110.522 313.192 110.522C313.677 110.522 314.162 110.488 314.642 110.421L316.614 112.739C317.65 112.454 318.65 112.049 319.592 111.532L319.596 108.413C320.399 107.829 321.122 107.142 321.747 106.369L324.857 106.529C325.422 105.613 325.879 104.635 326.218 103.614L324.008 101.521C324.1 101.044 324.16 100.561 324.186 100.076ZM313.568 103.352C313.144 103.357 312.724 103.274 312.334 103.108C311.944 102.943 311.592 102.699 311.301 102.391C311.009 102.084 310.784 101.72 310.64 101.321C310.496 100.923 310.436 100.499 310.463 100.076C310.518 99.1954 310.904 98.3681 311.543 97.7603C312.183 97.1526 313.029 96.8095 313.911 96.8C314.335 96.7954 314.755 96.8783 315.145 97.0436C315.535 97.2089 315.887 97.4529 316.178 97.7605C316.47 98.068 316.694 98.4324 316.839 98.8308C316.983 99.2293 317.043 99.6532 317.015 100.076C316.961 100.957 316.575 101.784 315.936 102.392C315.296 102.999 314.45 103.342 313.568 103.352Z" fill="white"/>
<path d="M313.566 103.352C313.142 103.356 312.722 103.273 312.332 103.108C311.942 102.943 311.59 102.699 311.299 102.391C311.007 102.084 310.783 101.719 310.638 101.321C310.494 100.922 310.434 100.499 310.462 100.076C310.516 99.1951 310.902 98.3678 311.542 97.7601C312.181 97.1524 313.027 96.8093 313.909 96.7997C314.333 96.7952 314.753 96.8781 315.143 97.0434C315.533 97.2086 315.885 97.4527 316.176 97.7602C316.468 98.0678 316.693 98.4322 316.837 98.8306C316.981 99.229 317.041 99.6529 317.013 100.076C316.959 100.956 316.573 101.784 315.934 102.391C315.294 102.999 314.448 103.342 313.566 103.352Z" fill="white"/>
<path d="M292.553 216.451H289.084L289.397 210.481H292.865L292.553 216.451Z" fill="#1FA3ED"/>
<path d="M308.363 216.451H304.895L305.41 206.609H308.879L308.363 216.451Z" fill="#1FA3ED"/>
<path d="M324.174 216.451H320.705L321.423 202.737H324.893L324.174 216.451Z" fill="#1FA3ED"/>
<path d="M339.984 216.451H336.516L337.437 198.865H340.905L339.984 216.451Z" fill="white"/>
<path d="M244.632 216.451H262.265C264.639 216.425 266.916 215.502 268.637 213.866C270.358 212.23 271.397 210.004 271.544 207.634C271.617 206.496 271.455 205.355 271.068 204.283C270.68 203.211 270.075 202.23 269.291 201.402C268.506 200.575 267.56 199.918 266.51 199.473C265.46 199.028 264.329 198.805 263.189 198.817H245.556C243.181 198.843 240.905 199.766 239.184 201.402C237.462 203.038 236.424 205.264 236.277 207.634C236.203 208.772 236.366 209.913 236.753 210.985C237.141 212.057 237.746 213.038 238.53 213.866C239.314 214.693 240.261 215.35 241.311 215.795C242.361 216.24 243.492 216.463 244.632 216.451Z" fill="white"/>
<path d="M245.456 200.753H263.089C265.225 200.729 267.288 201.533 268.845 202.996C270.401 204.459 271.331 206.468 271.439 208.602C271.492 208.282 271.527 207.958 271.545 207.634C271.619 206.496 271.457 205.355 271.069 204.283C270.681 203.211 270.076 202.23 269.292 201.402C268.508 200.575 267.561 199.918 266.511 199.473C265.461 199.028 264.331 198.805 263.191 198.817H245.557C243.183 198.843 240.906 199.766 239.185 201.402C237.464 203.038 236.425 205.264 236.278 207.634C236.262 207.957 236.264 208.28 236.283 208.602C236.649 206.426 237.769 204.448 239.445 203.013C241.122 201.578 243.249 200.779 245.456 200.753Z" fill="#1FA3ED"/>
<path opacity="0.3" d="M245.456 200.753H263.089C265.225 200.729 267.288 201.533 268.845 202.996C270.401 204.459 271.331 206.468 271.439 208.602C271.492 208.282 271.527 207.958 271.545 207.634C271.619 206.496 271.457 205.355 271.069 204.283C270.681 203.211 270.076 202.23 269.292 201.402C268.508 200.575 267.561 199.918 266.511 199.473C265.461 199.028 264.331 198.805 263.191 198.817H245.557C243.183 198.843 240.906 199.766 239.185 201.402C237.464 203.038 236.425 205.264 236.278 207.634C236.262 207.957 236.264 208.28 236.283 208.602C236.649 206.426 237.769 204.448 239.445 203.013C241.122 201.578 243.249 200.779 245.456 200.753Z" fill="white"/>
<path d="M251.087 213.786C254.667 210.297 254.886 204.715 251.576 201.318C248.265 197.921 242.68 197.994 239.1 201.483C235.519 204.971 235.301 210.553 238.611 213.95C241.921 217.348 247.507 217.274 251.087 213.786Z" fill="#1FA3ED"/>
<path d="M234.703 292.432H231.234L231.648 284.527H235.117L234.703 292.432Z" fill="#1FA3ED"/>
<path d="M247.558 290.496H244.09L244.25 287.431H247.718L247.558 290.496Z" fill="#1FA3ED"/>
<path d="M260.263 291.464H256.795L257.057 286.463H260.525L260.263 291.464Z" fill="#1FA3ED"/>
<path d="M273.07 290.496H269.602L269.763 287.431H273.231L273.07 290.496Z" fill="#1FA3ED"/>
<path d="M285.724 292.432H282.256L282.67 284.527H286.138L285.724 292.432Z" fill="#1FA3ED"/>
<path d="M298.581 290.496H295.111L295.272 287.431H298.741L298.581 290.496Z" fill="#1FA3ED"/>
<path d="M311.287 291.464H307.818L308.08 286.463H311.549L311.287 291.464Z" fill="#1FA3ED"/>
<path d="M324.094 290.496H320.625L320.786 287.431H324.255L324.094 290.496Z" fill="#1FA3ED"/>
<path d="M336.748 292.432H333.279L333.693 284.527H337.162L336.748 292.432Z" fill="#1FA3ED"/>
<g opacity="0.3">
<path d="M234.701 292.432H231.232L231.646 284.527H235.115L234.701 292.432Z" fill="black"/>
<path d="M247.558 290.496H244.09L244.25 287.431H247.718L247.558 290.496Z" fill="black"/>
<path d="M260.263 291.464H256.795L257.057 286.463H260.525L260.263 291.464Z" fill="black"/>
<path d="M273.07 290.496H269.602L269.763 287.431H273.231L273.07 290.496Z" fill="black"/>
<path d="M285.723 292.432H282.254L282.668 284.527H286.136L285.723 292.432Z" fill="black"/>
<path d="M298.581 290.496H295.111L295.272 287.431H298.741L298.581 290.496Z" fill="black"/>
<path d="M311.285 291.464H307.816L308.078 286.463H311.547L311.285 291.464Z" fill="black"/>
<path d="M324.092 290.496H320.623L320.784 287.431H324.253L324.092 290.496Z" fill="black"/>
<path d="M336.748 292.432H333.279L333.693 284.527H337.162L336.748 292.432Z" fill="black"/>
</g>
<path d="M275.938 293.733C275.983 292.863 276.142 289.833 276.188 288.963C276.233 288.093 276.392 285.063 276.438 284.193C276.477 283.578 276.39 282.961 276.18 282.381C275.97 281.8 275.643 281.27 275.219 280.822C274.794 280.374 274.282 280.019 273.714 279.778C273.146 279.538 272.535 279.417 271.918 279.424C270.633 279.438 269.402 279.937 268.47 280.822C267.539 281.707 266.977 282.911 266.898 284.193C266.852 285.063 266.694 288.093 266.648 288.963C266.602 289.833 266.444 292.863 266.398 293.733C266.358 294.349 266.446 294.966 266.656 295.546C266.865 296.126 267.193 296.657 267.617 297.104C268.041 297.552 268.553 297.907 269.121 298.148C269.689 298.389 270.301 298.509 270.918 298.503C272.202 298.489 273.434 297.989 274.365 297.105C275.296 296.22 275.858 295.015 275.938 293.733Z" fill="#1FA3ED"/>
<path d="M242.405 258.942H260.038C262.413 258.917 264.689 257.993 266.411 256.358C268.132 254.722 269.17 252.496 269.317 250.126C269.391 248.988 269.229 247.847 268.841 246.775C268.453 245.702 267.848 244.722 267.064 243.894C266.28 243.066 265.333 242.41 264.283 241.965C263.233 241.52 262.103 241.297 260.962 241.309H243.329C240.955 241.335 238.678 242.258 236.957 243.894C235.236 245.529 234.197 247.756 234.05 250.126C233.977 251.264 234.139 252.404 234.527 253.477C234.914 254.549 235.519 255.53 236.304 256.357C237.088 257.185 238.035 257.842 239.085 258.287C240.134 258.732 241.265 258.955 242.405 258.942Z" fill="white"/>
<path d="M243.227 243.245H260.861C262.997 243.221 265.059 244.024 266.616 245.488C268.173 246.951 269.102 248.96 269.21 251.094C269.263 250.773 269.299 250.45 269.317 250.126C269.39 248.988 269.228 247.847 268.84 246.775C268.453 245.702 267.848 244.722 267.064 243.894C266.279 243.066 265.333 242.41 264.283 241.965C263.233 241.52 262.102 241.297 260.962 241.309H243.329C240.954 241.335 238.678 242.258 236.957 243.894C235.235 245.529 234.197 247.756 234.05 250.126C234.034 250.448 234.036 250.771 234.055 251.094C234.421 248.918 235.54 246.939 237.217 245.505C238.893 244.07 241.021 243.27 243.227 243.245Z" fill="#1FA3ED"/>
<path opacity="0.3" d="M243.227 243.245H260.861C262.997 243.221 265.059 244.024 266.616 245.488C268.173 246.951 269.102 248.96 269.21 251.094C269.263 250.773 269.299 250.45 269.317 250.126C269.39 248.988 269.228 247.847 268.84 246.775C268.453 245.702 267.848 244.722 267.064 243.894C266.279 243.066 265.333 242.41 264.283 241.965C263.233 241.52 262.102 241.297 260.962 241.309H243.329C240.954 241.335 238.678 242.258 236.957 243.894C235.235 245.529 234.197 247.756 234.05 250.126C234.034 250.448 234.036 250.771 234.055 251.094C234.421 248.918 235.54 246.939 237.217 245.505C238.893 244.07 241.021 243.27 243.227 243.245Z" fill="white"/>
<path d="M251.683 250.126C251.83 247.756 252.869 245.529 254.59 243.894C256.311 242.258 258.588 241.335 260.962 241.309C262.102 241.297 263.233 241.52 264.283 241.965C265.332 242.41 266.279 243.066 267.064 243.894C267.848 244.722 268.453 245.702 268.84 246.775C269.228 247.847 269.39 248.988 269.317 250.126C269.17 252.496 268.131 254.722 266.41 256.358C264.689 257.993 262.412 258.917 260.038 258.942C258.898 258.955 257.767 258.731 256.717 258.287C255.667 257.842 254.721 257.185 253.936 256.357C253.152 255.53 252.547 254.549 252.159 253.477C251.772 252.404 251.61 251.264 251.683 250.126Z" fill="#1FA3ED"/>
<path d="M244.13 135.605H340.287C341.547 135.592 342.755 135.102 343.669 134.234C344.582 133.366 345.133 132.184 345.211 130.927C345.25 130.323 345.164 129.717 344.958 129.148C344.753 128.579 344.432 128.059 344.015 127.62C343.599 127.18 343.097 126.832 342.54 126.596C341.982 126.36 341.382 126.241 340.777 126.248H244.621C243.361 126.261 242.152 126.752 241.239 127.619C240.326 128.487 239.775 129.669 239.697 130.927C239.658 131.53 239.744 132.136 239.949 132.705C240.155 133.274 240.476 133.794 240.892 134.234C241.308 134.673 241.811 135.021 242.368 135.257C242.925 135.493 243.525 135.612 244.13 135.605Z" fill="white"/>
<path d="M244.621 128.286H340.778C341.782 128.276 342.759 128.613 343.544 129.239C344.329 129.866 344.875 130.743 345.089 131.725C345.152 131.463 345.193 131.196 345.211 130.927C345.25 130.323 345.164 129.718 344.959 129.148C344.753 128.579 344.432 128.059 344.016 127.62C343.599 127.181 343.097 126.832 342.54 126.596C341.983 126.36 341.383 126.241 340.778 126.248H244.621C243.361 126.262 242.153 126.752 241.239 127.62C240.326 128.488 239.775 129.669 239.697 130.927C239.681 131.344 239.722 131.761 239.819 132.167C240.068 131.075 240.676 130.098 241.547 129.394C242.418 128.69 243.501 128.3 244.621 128.286Z" fill="#1FA3ED"/>
<path opacity="0.3" d="M244.621 128.286H340.778C341.782 128.276 342.759 128.613 343.544 129.239C344.329 129.866 344.875 130.743 345.089 131.725C345.152 131.463 345.193 131.196 345.211 130.927C345.25 130.323 345.164 129.718 344.959 129.148C344.753 128.579 344.432 128.059 344.016 127.62C343.599 127.181 343.097 126.832 342.54 126.596C341.983 126.36 341.383 126.241 340.778 126.248H244.621C243.361 126.262 242.153 126.752 241.239 127.62C240.326 128.488 239.775 129.669 239.697 130.927C239.681 131.344 239.722 131.761 239.819 132.167C240.068 131.075 240.676 130.098 241.547 129.394C242.418 128.69 243.501 128.3 244.621 128.286Z" fill="white"/>
<path d="M267.709 137.079C271.29 133.591 271.51 128.01 268.2 124.612C264.89 121.214 259.304 121.287 255.724 124.774C252.143 128.262 251.923 133.844 255.233 137.242C258.543 140.64 264.128 140.567 267.709 137.079Z" fill="#1FA3ED"/>
<path d="M338.65 244.707C338.678 244.268 338.616 243.828 338.466 243.415C338.317 243.002 338.084 242.624 337.781 242.305C337.479 241.986 337.114 241.733 336.71 241.561C336.305 241.39 335.87 241.304 335.43 241.309H307.047C306.132 241.319 305.255 241.675 304.591 242.305C303.928 242.935 303.528 243.793 303.471 244.707L302.903 255.544C302.875 255.983 302.937 256.422 303.087 256.836C303.236 257.249 303.469 257.627 303.771 257.946C304.074 258.265 304.439 258.518 304.843 258.689C305.248 258.861 305.683 258.947 306.123 258.942H334.506C335.421 258.932 336.298 258.576 336.962 257.946C337.625 257.316 338.025 256.458 338.082 255.544L338.65 244.707Z" fill="#1FA3ED"/>
<path d="M306.945 243.245H335.328C335.768 243.24 336.203 243.326 336.608 243.498C337.012 243.669 337.377 243.922 337.68 244.241C337.982 244.56 338.215 244.938 338.364 245.351C338.514 245.764 338.576 246.204 338.548 246.643L338.649 244.707C338.678 244.268 338.615 243.828 338.466 243.415C338.316 243.002 338.083 242.624 337.781 242.305C337.479 241.986 337.114 241.733 336.709 241.561C336.305 241.39 335.869 241.304 335.43 241.309H307.046C306.131 241.319 305.254 241.675 304.591 242.305C303.927 242.935 303.527 243.793 303.471 244.707L303.369 246.643C303.426 245.729 303.826 244.871 304.489 244.241C305.153 243.611 306.03 243.255 306.945 243.245Z" fill="#1FA3ED"/>
<path opacity="0.3" d="M306.945 243.245H335.328C335.768 243.24 336.203 243.326 336.608 243.498C337.012 243.669 337.377 243.922 337.68 244.241C337.982 244.56 338.215 244.938 338.364 245.351C338.514 245.764 338.576 246.204 338.548 246.643L338.649 244.707C338.678 244.268 338.615 243.828 338.466 243.415C338.316 243.002 338.083 242.624 337.781 242.305C337.479 241.986 337.114 241.733 336.709 241.561C336.305 241.39 335.869 241.304 335.43 241.309H307.046C306.131 241.319 305.254 241.675 304.591 242.305C303.927 242.935 303.527 243.793 303.471 244.707L303.369 246.643C303.426 245.729 303.826 244.871 304.489 244.241C305.153 243.611 306.03 243.255 306.945 243.245Z" fill="black"/>
<path d="M321.104 244.707C321.133 244.268 321.07 243.828 320.921 243.415C320.772 243.002 320.538 242.624 320.236 242.305C319.934 241.986 319.569 241.733 319.164 241.561C318.76 241.39 318.324 241.304 317.885 241.309H307.047C306.132 241.319 305.255 241.675 304.591 242.305C303.928 242.935 303.528 243.793 303.471 244.707L302.903 255.544C302.875 255.983 302.937 256.422 303.087 256.836C303.236 257.249 303.469 257.627 303.771 257.946C304.074 258.265 304.439 258.518 304.843 258.689C305.248 258.861 305.683 258.947 306.123 258.942H316.961C317.876 258.932 318.753 258.576 319.416 257.946C320.08 257.316 320.48 256.458 320.536 255.544L321.104 244.707Z" fill="white"/>
<path d="M313.58 253.11H310.111L310.424 247.141H313.893L313.58 253.11Z" fill="#1FA3ED"/>
<path d="M338.768 164.602H242.611C241.351 164.615 240.143 165.105 239.229 165.973C238.316 166.841 237.765 168.023 237.687 169.28C237.648 169.884 237.734 170.49 237.94 171.059C238.145 171.628 238.466 172.148 238.883 172.587C239.299 173.027 239.801 173.375 240.358 173.611C240.916 173.847 241.515 173.966 242.121 173.959H338.277C339.537 173.945 340.745 173.455 341.659 172.587C342.572 171.72 343.123 170.538 343.201 169.28C343.24 168.677 343.154 168.071 342.949 167.502C342.743 166.933 342.422 166.413 342.006 165.973C341.589 165.534 341.087 165.186 340.53 164.95C339.973 164.713 339.373 164.595 338.768 164.602Z" fill="#1FA3ED"/>
<path opacity="0.3" d="M242.611 166.64H338.768C339.772 166.63 340.749 166.967 341.535 167.593C342.32 168.219 342.865 169.097 343.079 170.078C343.143 169.816 343.184 169.549 343.202 169.28C343.241 168.676 343.155 168.071 342.949 167.502C342.743 166.933 342.422 166.413 342.006 165.973C341.59 165.534 341.087 165.186 340.53 164.95C339.973 164.713 339.373 164.595 338.768 164.602H242.611C241.351 164.615 240.143 165.105 239.23 165.973C238.316 166.841 237.765 168.023 237.687 169.28C237.671 169.697 237.712 170.115 237.809 170.52C238.058 169.428 238.667 168.452 239.538 167.748C240.409 167.044 241.491 166.653 242.611 166.64Z" fill="black"/>
<path d="M323.847 178.097H316.48C315.816 178.104 315.158 177.974 314.546 177.715C313.935 177.456 313.384 177.074 312.927 176.592C312.471 176.11 312.118 175.539 311.893 174.915C311.667 174.291 311.573 173.626 311.616 172.964L312.002 165.597C312.087 164.217 312.692 162.921 313.694 161.969C314.696 161.016 316.021 160.479 317.404 160.464H324.771C325.435 160.456 326.093 160.586 326.704 160.845C327.315 161.104 327.867 161.487 328.323 161.969C328.78 162.451 329.132 163.022 329.358 163.646C329.583 164.27 329.678 164.934 329.635 165.597L329.249 172.964C329.163 174.344 328.559 175.64 327.557 176.592C326.555 177.544 325.229 178.082 323.847 178.097Z" fill="white"/>
<path d="M322.588 172.265H319.119L319.432 166.296H322.901L322.588 172.265Z" fill="#1FA3ED"/>
<path d="M170.995 138.179L157.973 152.958C159.026 160.003 161.118 180.423 161.118 180.423C159.163 183.011 154.381 182.278 154.381 182.278C150.481 172.561 148.883 162.072 149.714 151.635C150.637 142.081 162.887 123.307 171.601 117.987C173.025 117.122 174.569 116.47 176.184 116.053L177.905 115.855L171.803 138.564L170.995 138.179Z" fill="#1FA3ED"/>
<path opacity="0.6" d="M170.995 138.179L157.973 152.958C159.026 160.003 161.118 180.423 161.118 180.423C159.163 183.011 154.381 182.278 154.381 182.278C150.481 172.561 148.883 162.072 149.714 151.635C150.637 142.081 162.887 123.307 171.601 117.987C173.025 117.122 174.569 116.47 176.184 116.053L177.905 115.855L171.803 138.564L170.995 138.179Z" fill="black"/>
<path d="M160.378 182.079L163.533 185.455C163.636 185.566 163.716 185.697 163.767 185.84L165.621 191.058C165.67 191.196 165.692 191.344 165.683 191.491C165.675 191.638 165.638 191.782 165.573 191.914L164.675 193.756C164.6 193.909 164.492 194.042 164.358 194.146C164.224 194.25 164.068 194.322 163.901 194.356L157.505 195.668C157.36 195.697 157.211 195.698 157.067 195.669C156.922 195.64 156.784 195.583 156.662 195.5C156.54 195.418 156.435 195.311 156.355 195.188C156.274 195.064 156.219 194.926 156.192 194.781L154.944 187.912C154.919 187.777 154.92 187.638 154.946 187.503L155.803 183.095C155.846 182.875 155.954 182.674 156.114 182.517C156.274 182.359 156.478 182.255 156.699 182.216L159.376 181.744C159.558 181.712 159.745 181.726 159.92 181.785C160.095 181.843 160.252 181.944 160.378 182.079Z" fill="#FAB27B"/>
<path d="M163.101 181.299L153.052 185.86L152.924 180.996L162.189 177.434L163.101 181.299Z" fill="#1FA3ED"/>
<path opacity="0.5" d="M163.101 181.299L153.052 185.86L152.924 180.996L162.189 177.434L163.101 181.299Z" fill="white"/>
<path d="M159.208 199.276C153.213 220.705 155.752 252.271 152.462 273.449C150.195 288.042 134.727 336.061 134.727 336.061L148.382 340.199C148.382 340.199 165.423 297.908 168.724 285.296C174.076 264.846 182.131 226.047 182.131 226.047C182.131 226.047 185.131 215.037 183.773 213.849C182.414 212.66 159.208 199.276 159.208 199.276Z" fill="#1FA3ED"/>
<path opacity="0.3" d="M174.234 213.972L184.106 217.174L180.412 234.529C180.412 234.529 182.238 217.923 174.234 213.972Z" fill="black"/>
<path d="M137.473 335.445L135.029 343.196L141.644 346.173L144.929 337.933L137.473 335.445Z" fill="#FAB27B"/>
<path opacity="0.2" d="M136.021 340.043L143.012 342.737L143.943 340.4L136.591 338.233L136.021 340.043Z" fill="black"/>
<path d="M134.875 331.816L151.573 336.384L148.55 341.757L133.939 337.45L134.875 331.816Z" fill="#1FA3ED"/>
<path opacity="0.5" d="M134.875 331.816L151.573 336.384L148.55 341.757L133.939 337.45L134.875 331.816Z" fill="white"/>
<path d="M143.064 347.227C143.03 347.205 143.003 347.173 142.988 347.136C142.972 347.098 142.967 347.057 142.974 347.017C142.982 346.977 143.002 346.941 143.031 346.913C143.061 346.884 143.098 346.866 143.139 346.86C143.286 346.838 146.614 346.35 147.776 347.219C147.994 347.377 148.142 347.614 148.188 347.879C148.228 348.028 148.221 348.186 148.167 348.331C148.113 348.476 148.015 348.601 147.888 348.688C147.037 348.9 146.138 348.791 145.363 348.383C144.564 348.066 143.795 347.679 143.064 347.227ZM143.759 347.214C145.14 347.962 147.111 348.72 147.672 348.355C147.749 348.312 147.84 348.22 147.793 347.936C147.783 347.854 147.754 347.776 147.709 347.706C147.663 347.637 147.603 347.579 147.532 347.536C147.43 347.459 147.317 347.397 147.197 347.352C146.07 347.09 144.903 347.043 143.759 347.214Z" fill="#1FA3ED"/>
<path d="M142.97 347.178C142.95 347.15 142.937 347.116 142.934 347.081C142.931 347.046 142.938 347.01 142.953 346.979C143.002 346.885 144.034 344.864 145.347 344.436C145.535 344.373 145.734 344.347 145.932 344.362C146.13 344.377 146.323 344.432 146.499 344.524C146.987 344.774 147.046 345.094 146.982 345.313C146.804 346.255 144.268 347.211 143.174 347.259C143.145 347.262 143.117 347.253 143.094 347.236C143.047 347.233 143.003 347.212 142.97 347.178ZM146.238 344.826C146.005 344.731 145.746 344.725 145.509 344.808C144.664 345.252 143.975 345.945 143.536 346.792C144.727 346.599 146.474 345.759 146.633 345.211C146.638 345.158 146.668 345.016 146.347 344.858L146.238 344.826Z" fill="#1FA3ED"/>
<path d="M142.695 345.824L134.184 342.488C134.028 342.427 133.857 342.421 133.697 342.471C133.537 342.52 133.399 342.623 133.305 342.761L129.053 349.083C128.95 349.233 128.882 349.405 128.854 349.586C128.826 349.766 128.839 349.951 128.892 350.126C128.944 350.3 129.035 350.461 129.158 350.596C129.281 350.731 129.433 350.837 129.602 350.906C132.691 352.055 135.485 352.956 139.303 354.458C143.81 356.226 142.455 356.317 147.725 358.47C150.902 359.763 152.908 356.363 151.625 355.653C145.733 352.445 145.823 350.322 144.302 347.167C143.949 346.537 143.378 346.059 142.695 345.824Z" fill="#263238"/>
<path d="M198.172 341.758L198.328 349.224L205.547 349.923L205.982 341.758H198.172Z" fill="#FAB27B"/>
<path opacity="0.2" d="M205.798 345.224L205.902 343.266L198.211 343.586L198.258 345.864L205.798 345.224Z" fill="black"/>
<path d="M159.209 199.276C161.468 188.5 170.492 178.934 170.492 178.934L205.113 181.161C205.113 181.161 207.295 203.417 207.804 210.856C208.832 225.877 213.037 249.192 213.149 264.259C213.301 284.624 208.632 338.713 208.632 338.713L195.553 340.262C195.553 340.262 195.748 290.244 193.605 271.376C191.982 257.084 182.223 217.929 182.223 217.929C182.223 217.929 155.42 217.352 159.209 199.276Z" fill="#1FA3ED"/>
<path d="M193.32 338.115L210.599 337.056L209.471 343.117L194.251 343.75L193.32 338.115Z" fill="#1FA3ED"/>
<path opacity="0.5" d="M193.32 338.115L210.599 337.056L209.471 343.117L194.251 343.75L193.32 338.115Z" fill="white"/>
<path d="M207.115 350.441C207.075 350.431 207.04 350.41 207.013 350.38C206.985 350.35 206.967 350.312 206.961 350.272C206.955 350.232 206.962 350.191 206.981 350.155C206.999 350.118 207.029 350.089 207.065 350.07C207.197 350.001 210.181 348.449 211.564 348.888C211.821 348.966 212.039 349.141 212.17 349.377C212.256 349.505 212.301 349.656 212.297 349.811C212.294 349.965 212.243 350.115 212.151 350.239C211.417 350.718 210.532 350.911 209.665 350.78C208.807 350.742 207.953 350.628 207.115 350.441ZM207.767 350.201C209.317 350.455 211.428 350.525 211.837 349.995C211.896 349.93 211.953 349.813 211.815 349.56C211.778 349.486 211.725 349.422 211.66 349.371C211.594 349.32 211.518 349.285 211.437 349.268C211.315 349.228 211.188 349.207 211.06 349.204C209.91 349.326 208.792 349.664 207.767 350.201Z" fill="#1FA3ED"/>
<path d="M207.009 350.426C206.98 350.405 206.957 350.378 206.943 350.345C206.929 350.313 206.923 350.278 206.927 350.243C206.943 350.138 207.255 347.89 208.355 347.056C208.512 346.934 208.691 346.845 208.883 346.794C209.075 346.744 209.275 346.732 209.472 346.761C210.016 346.837 210.175 347.12 210.187 347.348C210.328 348.296 208.245 350.031 207.228 350.435C207.201 350.447 207.172 350.449 207.145 350.439C207.099 350.452 207.051 350.447 207.009 350.426ZM209.324 347.132C209.074 347.119 208.827 347.198 208.63 347.354C207.977 348.05 207.554 348.931 207.417 349.875C208.479 349.303 209.853 347.936 209.824 347.366C209.811 347.315 209.794 347.17 209.438 347.126L209.324 347.132Z" fill="#1FA3ED"/>
<path d="M206.304 349.236L197.169 348.876C197.002 348.869 196.838 348.92 196.703 349.019C196.568 349.118 196.472 349.26 196.428 349.422L194.484 356.788C194.436 356.964 194.428 357.149 194.461 357.328C194.494 357.508 194.567 357.678 194.674 357.826C194.781 357.974 194.919 358.096 195.08 358.183C195.24 358.271 195.418 358.321 195.6 358.331C198.895 358.403 201.83 358.339 205.93 358.506C210.767 358.698 209.517 359.229 215.201 359.534C218.627 359.715 219.407 355.844 217.962 355.595C211.345 354.495 210.733 352.46 208.262 349.978C207.722 349.499 207.025 349.235 206.304 349.236Z" fill="#263238"/>
<path d="M195.474 107.323C194.869 109.251 193.356 112.505 195.499 115.406L185.092 114.398C185.092 114.398 186.207 106.724 186.851 104.225C187.269 102.606 187.807 100.849 193.276 102.378C196.385 103.246 195.879 106.032 195.474 107.323Z" fill="#FAB27B"/>
<path d="M186.087 104.479C180.361 100.064 168.252 88.0792 179.867 77.6162C189.543 68.9 198.42 73.9935 201.454 79.8848C204.848 86.4756 212.539 104.092 195.474 107.323C192.328 107.918 189.06 106.772 186.087 104.479Z" fill="#FAB27B"/>
<path d="M177.906 114.735C177.906 114.735 185.932 107.684 201.183 116.989L200.972 119.168L178.051 116.948L177.906 114.735Z" fill="#1FA3ED"/>
<path opacity="0.5" d="M177.906 114.735C177.906 114.735 185.932 107.684 201.183 116.989L200.972 119.168L178.051 116.948L177.906 114.735Z" fill="white"/>
<path opacity="0.1" d="M193.275 105.247C193.333 107.602 193.997 108.825 194.845 109.432C195.002 108.714 195.211 108.009 195.473 107.323C193.425 106.426 193.275 105.247 193.275 105.247Z" fill="black"/>
<path d="M199.396 116.713C196.094 116.007 192.757 115.477 189.399 115.124C183.484 114.426 178.976 113.968 175.71 115.405C170.51 117.694 169.848 119.168 169.848 119.168L170.879 136.006C171.69 144.133 171.837 152.313 171.319 160.464C171.315 160.535 170.911 176.516 162.283 185.09C165.87 188.001 170.118 189.985 174.653 190.867L179.524 179.218L181.057 191.487C181.057 191.487 198.6 196.688 213.071 191.894C213.071 191.894 205.146 179.236 207.697 166.296C208.926 160.062 209.825 157.148 210.519 152.232C210.927 149.594 210.937 146.91 210.549 144.27L207.295 122.056C207.295 122.056 201.515 117.194 199.396 116.713Z" fill="#1FA3ED"/>
<path opacity="0.6" d="M199.396 116.713C196.094 116.007 192.757 115.477 189.399 115.124C183.484 114.426 178.976 113.968 175.71 115.405C170.51 117.694 169.848 119.168 169.848 119.168L170.879 136.006C171.69 144.133 171.837 152.313 171.319 160.464C171.315 160.535 170.911 176.516 162.283 185.09C165.87 188.001 170.118 189.985 174.653 190.867L179.524 179.218L181.057 191.487C181.057 191.487 198.6 196.688 213.071 191.894C213.071 191.894 205.146 179.236 207.697 166.296C208.926 160.062 209.825 157.148 210.519 152.232C210.927 149.594 210.937 146.91 210.549 144.27L207.295 122.056C207.295 122.056 201.515 117.194 199.396 116.713Z" fill="black"/>
<path d="M209.475 158.488C209.891 156.239 210.254 154.116 210.521 152.232C210.929 149.594 210.939 146.91 210.551 144.27L205.9 139.039C205.9 139.039 210.319 145.334 209.475 158.488Z" fill="black"/>
<path d="M251.061 134.504L254.271 125.349C254.336 125.165 254.468 125.014 254.641 124.925L259.689 122.349C259.824 122.28 259.977 122.253 260.128 122.272C260.278 122.291 260.42 122.355 260.533 122.455L264.131 125.62C264.274 125.747 264.365 125.923 264.384 126.113C264.403 126.304 264.349 126.495 264.233 126.647L260.515 131.533C260.472 131.59 260.437 131.652 260.412 131.719C260.13 132.446 258.212 137.016 254.128 138.158C254.078 138.172 254.03 138.191 253.984 138.216L252.611 138.949C252.449 139.036 252.261 139.06 252.082 139.019C251.903 138.977 251.746 138.871 251.639 138.722L249.893 136.282C249.828 136.191 249.784 136.087 249.764 135.976C249.744 135.866 249.749 135.753 249.778 135.645C249.807 135.537 249.86 135.437 249.932 135.351C250.005 135.266 250.095 135.198 250.197 135.152L250.658 134.943C250.752 134.901 250.835 134.84 250.905 134.765C250.974 134.689 251.027 134.601 251.061 134.504Z" fill="#FAB27B"/>
<path d="M199.305 116.704C205.408 118.208 210.762 121.87 214.377 127.012C218.905 132.737 224.019 137.973 229.637 142.632C229.637 142.632 241.413 140.13 248.848 133.701L253.209 140.21C253.209 140.21 235.31 153.704 228.026 152.998C221.812 152.396 210.476 144.306 210.476 144.306L205.819 139.067L199.305 116.704Z" fill="#1FA3ED"/>
<path opacity="0.6" d="M199.305 116.704C205.408 118.208 210.762 121.87 214.377 127.012C218.905 132.737 224.019 137.973 229.637 142.632C229.637 142.632 241.413 140.13 248.848 133.701L253.209 140.21C253.209 140.21 235.31 153.704 228.026 152.998C221.812 152.396 210.476 144.306 210.476 144.306L205.819 139.067L199.305 116.704Z" fill="black"/>
<path d="M249.268 132.88L255.809 140.999L251.429 142.161L246.211 134.532L249.268 132.88Z" fill="#1FA3ED"/>
<path opacity="0.5" d="M249.268 132.88L255.809 140.999L251.429 142.161L246.211 134.532L249.268 132.88Z" fill="white"/>
<path d="M205.699 93.9675V97.1304L207.834 96.8278L205.699 93.9675Z" fill="#E07F50"/>
<path d="M188.999 112.875C184.096 113.379 169.611 113.66 171.356 103.054C173.101 92.4493 170.737 87.1924 175.231 79.7266C179.725 72.2608 189.095 70.0706 197.519 72.2781C204.535 74.1166 205.107 79.0285 203.205 81.9867C201.302 84.945 200.441 85.49 200.777 87.5876C201.112 89.6851 199.839 90.8597 199.287 91.8428C198.686 92.5568 197.919 93.1129 197.053 93.4627C196.669 95.5252 196.796 97.6505 197.423 99.6527C198.442 103.537 200.521 111.689 188.999 112.875Z" fill="black"/>
<path d="M195.521 72.3591C197.878 72.5984 200.174 73.2568 202.3 74.3031C203.963 75.154 205.621 76.4354 205.996 78.3751C206.538 81.1823 204.368 83.8406 202.646 85.7779C202.371 86.0879 202.895 86.4615 203.168 86.1547C206.213 82.7275 208.589 77.9185 204.096 74.638C201.549 72.9644 198.621 71.9603 195.583 71.7186C195.5 71.7137 195.418 71.7413 195.355 71.7954C195.292 71.8496 195.252 71.9261 195.244 72.009C195.236 72.0919 195.26 72.1746 195.312 72.2399C195.363 72.3052 195.438 72.3479 195.521 72.3591Z" fill="black"/>
<path d="M175.295 79.6618C172.059 83.8483 171.909 89.3233 171.261 94.3129C170.802 97.8405 166.829 104.712 169.64 108.039C169.908 108.355 170.413 107.956 170.145 107.639C168.226 105.368 170.142 102.026 170.802 99.6732C171.42 97.3606 171.837 94.9992 172.05 92.615C172.494 88.342 173.084 83.5755 175.81 80.0485C176.064 79.72 175.549 79.3343 175.295 79.6618Z" fill="black"/>
<path d="M203.506 87.9516C203.451 88.0861 203.557 87.8558 203.576 87.8217C203.642 87.7024 203.721 87.5908 203.811 87.4887C203.952 87.3194 204.14 87.1955 204.351 87.1325C204.562 87.0695 204.788 87.0703 204.998 87.1347C205.075 87.1531 205.157 87.1409 205.225 87.1006C205.293 87.0602 205.343 86.9949 205.364 86.9185C205.385 86.842 205.376 86.7604 205.338 86.6907C205.3 86.6211 205.236 86.5689 205.161 86.5452C204.699 86.4327 204.211 86.4982 203.795 86.7287C203.38 86.9591 203.066 87.3377 202.916 87.7891C202.768 88.1534 203.359 88.3118 203.506 87.9516Z" fill="black"/>
<path d="M201 92.6C201.657 94.5624 201.034 96.5394 199.609 97.0159C198.185 97.4924 196.498 96.2879 195.841 94.3256C195.185 92.3632 195.808 90.3862 197.232 89.9097C198.657 89.4333 200.344 90.6378 201 92.6Z" fill="#FAB27B"/>
<path d="M205.787 87.6318C205.703 88.3639 204.989 88.5139 204.619 88.574C204.371 88.6143 204.223 89.059 204.292 89.5841C204.361 90.1092 204.62 90.5082 204.869 90.4755C205.118 90.4427 205.264 89.9905 205.195 89.4654C205.175 89.3164 205.136 89.1706 205.079 89.0315C206.266 88.3882 205.787 87.6318 205.787 87.6318Z" fill="black"/>
</svg>
