<svg width="178" height="40" viewBox="0 0 178 40" fill="none" xmlns="http://www.w3.org/2000/svg">
<path fill-rule="evenodd" clip-rule="evenodd" d="M11.0483 14.1253C17.3803 21.9973 22.797 28.6129 23.0849 28.8265C23.5958 29.2052 31.355 30.7505 32.7462 30.7505C33.1304 30.7505 34.2301 30.3688 35.1897 29.9026L36.9345 29.0547L31.7336 28.9005C28.8731 28.8158 26.7333 28.6638 26.9785 28.5629C27.2237 28.4621 30.3751 27.7773 33.9813 27.0417L40.5386 25.7039L41.8136 23.7112C42.7304 22.2785 42.934 21.7815 42.5379 21.9421C40.0266 22.9611 27.1458 27.6352 27.0688 27.5553C27.0148 27.4992 30.6819 25.3965 35.2176 22.8822C46.3446 16.7146 45.2548 17.5008 46.0299 15.0839C46.3937 13.9499 46.6466 13.0222 46.5922 13.0222C46.5375 13.0222 46.654 12.7101 46.8507 12.3284C47.0475 11.9467 47.1372 11.6347 47.0499 11.6347C46.9042 11.6347 37.3253 18.6622 27.5901 25.9108C25.393 27.5467 23.5408 28.8284 23.474 28.759C23.4071 28.6897 24.4491 26.9751 25.7891 24.9485C27.3882 22.5309 27.9375 21.6988 27.9821 21.1843C28.0092 20.8708 27.7221 20.4684 27.4867 20.1954C27.3014 19.9804 27.0809 19.7897 26.9453 19.5404C26.8624 19.3881 26.7615 19.2145 26.6615 19.0333C26.4792 18.7031 26.3158 18.3469 26.0364 18.1004C25.9103 17.9892 25.8271 17.9813 25.7897 18.1094C25.5992 18.762 23.386 26.434 23.1979 26.434C23.1063 26.434 23.098 23.8111 23.1789 20.6052L23.3263 14.7765L21.6602 13.2596C20.7439 12.4253 19.4913 11.2863 18.8761 10.7283C18.2612 10.1705 17.8207 9.90351 17.8971 10.1348C17.9738 10.3663 18.9845 13.9548 20.143 18.1094C21.3015 22.264 22.3185 25.8713 22.4026 26.1257C22.8915 27.6016 21.4444 24.8887 16.8694 15.7517L11.7526 5.53187L6.11867 2.86122C3.02012 1.39208 0.271063 0.105159 0.00982878 0.00125606C-0.251108 -0.102647 4.71592 6.25303 11.0483 14.1253ZM15.3136 29.9063C14.4913 30.2849 13.9037 30.7575 13.9064 31.0387C13.912 31.6316 14.485 32.6321 14.4918 32.0608C14.4948 31.7923 15.0859 31.6754 16.4423 31.6754C18.1105 31.6754 19.2238 31.9896 24.2437 33.8774C29.0208 35.674 30.6346 36.4405 33.0071 38.0397C34.6063 39.1179 35.9678 40 36.0325 40C36.097 40 36.0257 39.5499 35.8735 39.0001C35.4019 37.2933 35.3915 37.2979 38.4948 37.8843C40.0887 38.1856 41.5907 38.4378 41.8332 38.4452C42.0754 38.4526 41.5473 37.7995 40.6593 36.9939L40.0363 36.4289C39.6375 36.0672 39.8353 35.4048 40.3671 35.321C41.0947 35.2063 42.559 35.0922 43.6214 35.0675C45.3475 35.0271 44.3724 34.7493 34.469 32.4588C28.3726 31.0489 22.3544 29.8058 21.0952 29.6963C19.836 29.5869 18.3376 29.4432 17.7655 29.3769C17.1271 29.3029 16.1802 29.5073 15.3136 29.9063Z" fill="url(#paint0_linear_51_14999)"/>
<path fill-rule="evenodd" clip-rule="evenodd" d="M11.0483 14.1253C17.3803 21.9973 22.797 28.6129 23.0849 28.8265C23.5958 29.2052 31.355 30.7505 32.7462 30.7505C33.1304 30.7505 34.2301 30.3688 35.1897 29.9026L36.9345 29.0547L31.7336 28.9005C28.8731 28.8158 26.7333 28.6638 26.9785 28.5629C27.2237 28.4621 30.3751 27.7773 33.9813 27.0417L40.5386 25.7039L41.8136 23.7112C42.7304 22.2785 42.934 21.7815 42.5379 21.9421C40.0266 22.9611 27.1458 27.6352 27.0688 27.5553C27.0148 27.4992 30.6819 25.3965 35.2176 22.8822C46.3446 16.7146 45.2548 17.5008 46.0299 15.0839C46.3937 13.9499 46.6466 13.0222 46.5922 13.0222C46.5375 13.0222 46.654 12.7101 46.8507 12.3284C47.0475 11.9467 47.1372 11.6347 47.0499 11.6347C46.9042 11.6347 37.3253 18.6622 27.5901 25.9108C25.393 27.5467 23.5408 28.8284 23.474 28.759C23.4071 28.6897 24.4491 26.9751 25.7891 24.9485C27.3882 22.5309 27.9375 21.6988 27.9821 21.1843C28.0092 20.8708 27.7221 20.4684 27.4867 20.1954C27.3014 19.9804 27.0809 19.7897 26.9453 19.5404C26.8624 19.3881 26.7615 19.2145 26.6615 19.0333C26.4792 18.7031 26.3158 18.3469 26.0364 18.1004C25.9103 17.9892 25.8271 17.9813 25.7897 18.1094C25.5992 18.762 23.386 26.434 23.1979 26.434C23.1063 26.434 23.098 23.8111 23.1789 20.6052L23.3263 14.7765L21.6602 13.2596C20.7439 12.4253 19.4913 11.2863 18.8761 10.7283C18.2612 10.1705 17.8207 9.90351 17.8971 10.1348C17.9738 10.3663 18.9845 13.9548 20.143 18.1094C21.3015 22.264 22.3185 25.8713 22.4026 26.1257C22.8915 27.6016 21.4444 24.8887 16.8694 15.7517L11.7526 5.53187L6.11867 2.86122C3.02012 1.39208 0.271063 0.105159 0.00982878 0.00125606C-0.251108 -0.102647 4.71592 6.25303 11.0483 14.1253ZM15.3136 29.9063C14.4913 30.2849 13.9037 30.7575 13.9064 31.0387C13.912 31.6316 14.485 32.6321 14.4918 32.0608C14.4948 31.7923 15.0859 31.6754 16.4423 31.6754C18.1105 31.6754 19.2238 31.9896 24.2437 33.8774C29.0208 35.674 30.6346 36.4405 33.0071 38.0397C34.6063 39.1179 35.9678 40 36.0325 40C36.097 40 36.0257 39.5499 35.8735 39.0001C35.4019 37.2933 35.3915 37.2979 38.4948 37.8843C40.0887 38.1856 41.5907 38.4378 41.8332 38.4452C42.0754 38.4526 41.5473 37.7995 40.6593 36.9939L40.0363 36.4289C39.6375 36.0672 39.8353 35.4048 40.3671 35.321C41.0947 35.2063 42.559 35.0922 43.6214 35.0675C45.3475 35.0271 44.3724 34.7493 34.469 32.4588C28.3726 31.0489 22.3544 29.8058 21.0952 29.6963C19.836 29.5869 18.3376 29.4432 17.7655 29.3769C17.1271 29.3029 16.1802 29.5073 15.3136 29.9063Z" fill="url(#paint1_linear_51_14999)"/>
<path d="M56.7875 29V16.304H60.0755L60.1955 20.384L59.6195 19.544C59.8115 18.888 60.1235 18.296 60.5555 17.768C60.9875 17.224 61.4915 16.8 62.0675 16.496C62.6595 16.192 63.2755 16.04 63.9155 16.04C64.1875 16.04 64.4515 16.064 64.7075 16.112C64.9635 16.16 65.1795 16.216 65.3555 16.28L64.4435 20.024C64.2515 19.928 64.0195 19.848 63.7475 19.784C63.4755 19.704 63.1955 19.664 62.9075 19.664C62.5235 19.664 62.1635 19.736 61.8275 19.88C61.5075 20.008 61.2275 20.2 60.9875 20.456C60.7475 20.696 60.5555 20.984 60.4115 21.32C60.2835 21.656 60.2195 22.024 60.2195 22.424V29H56.7875ZM71.5239 29.24C70.4679 29.24 69.5159 28.952 68.6679 28.376C67.8199 27.8 67.1479 27.016 66.6519 26.024C66.1559 25.032 65.9079 23.896 65.9079 22.616C65.9079 21.336 66.1559 20.208 66.6519 19.232C67.1639 18.24 67.8519 17.464 68.7159 16.904C69.5799 16.328 70.5639 16.04 71.6679 16.04C72.2919 16.04 72.8599 16.136 73.3719 16.328C73.8999 16.504 74.3559 16.752 74.7399 17.072C75.1399 17.392 75.4759 17.76 75.7479 18.176C76.0199 18.592 76.2119 19.04 76.3239 19.52L75.6039 19.4V16.304H78.9879V29H75.5559V25.952L76.3239 25.88C76.1959 26.328 75.9879 26.752 75.6999 27.152C75.4119 27.552 75.0519 27.912 74.6199 28.232C74.2039 28.536 73.7319 28.784 73.2039 28.976C72.6759 29.152 72.1159 29.24 71.5239 29.24ZM72.4599 26.288C73.0999 26.288 73.6599 26.136 74.1399 25.832C74.6199 25.528 74.9879 25.104 75.2439 24.56C75.5159 24 75.6519 23.352 75.6519 22.616C75.6519 21.896 75.5159 21.264 75.2439 20.72C74.9879 20.176 74.6199 19.752 74.1399 19.448C73.6599 19.128 73.0999 18.968 72.4599 18.968C71.8359 18.968 71.2839 19.128 70.8039 19.448C70.3399 19.752 69.9719 20.176 69.6999 20.72C69.4279 21.264 69.2919 21.896 69.2919 22.616C69.2919 23.352 69.4279 24 69.6999 24.56C69.9719 25.104 70.3399 25.528 70.8039 25.832C71.2839 26.136 71.8359 26.288 72.4599 26.288ZM82.4047 34.28V16.304H85.6927L85.7887 19.16L85.1647 18.944C85.2767 18.432 85.5487 17.96 85.9807 17.528C86.4287 17.096 86.9807 16.744 87.6367 16.472C88.2927 16.2 88.9807 16.064 89.7007 16.064C90.8047 16.064 91.7807 16.352 92.6287 16.928C93.4927 17.488 94.1727 18.264 94.6687 19.256C95.1807 20.232 95.4367 21.36 95.4367 22.64C95.4367 23.904 95.1887 25.032 94.6927 26.024C94.1967 27.016 93.5167 27.8 92.6527 28.376C91.7887 28.936 90.8047 29.216 89.7007 29.216C88.9647 29.216 88.2607 29.08 87.5887 28.808C86.9327 28.52 86.3727 28.144 85.9087 27.68C85.4447 27.216 85.1567 26.72 85.0447 26.192L85.8367 25.856V34.28H82.4047ZM88.9327 26.288C89.5567 26.288 90.1087 26.136 90.5887 25.832C91.0687 25.528 91.4447 25.104 91.7167 24.56C91.9887 24 92.1247 23.36 92.1247 22.64C92.1247 21.92 91.9887 21.288 91.7167 20.744C91.4447 20.2 91.0687 19.776 90.5887 19.472C90.1247 19.168 89.5727 19.016 88.9327 19.016C88.2927 19.016 87.7327 19.168 87.2527 19.472C86.7727 19.76 86.3967 20.184 86.1247 20.744C85.8527 21.288 85.7167 21.92 85.7167 22.64C85.7167 23.36 85.8527 24 86.1247 24.56C86.3967 25.104 86.7727 25.528 87.2527 25.832C87.7327 26.136 88.2927 26.288 88.9327 26.288ZM99.2381 29V13.088H102.646V29H99.2381ZM96.8621 19.352V16.304H105.238V19.352H96.8621ZM113.246 29.24C111.95 29.24 110.79 28.96 109.766 28.4C108.758 27.824 107.958 27.04 107.366 26.048C106.79 25.056 106.502 23.92 106.502 22.64C106.502 21.36 106.79 20.232 107.366 19.256C107.958 18.264 108.758 17.48 109.766 16.904C110.79 16.328 111.95 16.04 113.246 16.04C114.526 16.04 115.67 16.328 116.678 16.904C117.702 17.48 118.502 18.264 119.078 19.256C119.654 20.232 119.942 21.36 119.942 22.64C119.942 23.92 119.654 25.056 119.078 26.048C118.502 27.04 117.702 27.824 116.678 28.4C115.67 28.96 114.526 29.24 113.246 29.24ZM113.246 26.264C113.87 26.264 114.43 26.112 114.926 25.808C115.422 25.488 115.806 25.056 116.078 24.512C116.366 23.952 116.51 23.328 116.51 22.64C116.51 21.936 116.366 21.312 116.078 20.768C115.806 20.208 115.422 19.776 114.926 19.472C114.43 19.152 113.87 18.992 113.246 18.992C112.606 18.992 112.038 19.152 111.542 19.472C111.046 19.792 110.654 20.224 110.366 20.768C110.078 21.312 109.942 21.936 109.958 22.64C109.942 23.328 110.078 23.952 110.366 24.512C110.654 25.056 111.046 25.488 111.542 25.808C112.038 26.112 112.606 26.264 113.246 26.264ZM122.506 29V16.304H125.794L125.914 20.384L125.338 19.544C125.53 18.888 125.842 18.296 126.274 17.768C126.706 17.224 127.21 16.8 127.786 16.496C128.378 16.192 128.994 16.04 129.634 16.04C129.906 16.04 130.17 16.064 130.426 16.112C130.682 16.16 130.898 16.216 131.074 16.28L130.162 20.024C129.97 19.928 129.738 19.848 129.466 19.784C129.194 19.704 128.914 19.664 128.626 19.664C128.242 19.664 127.882 19.736 127.546 19.88C127.226 20.008 126.946 20.2 126.706 20.456C126.466 20.696 126.274 20.984 126.13 21.32C126.002 21.656 125.938 22.024 125.938 22.424V29H122.506ZM143.142 29L137.934 21.464L131.262 12.2H135.678L140.766 19.64L147.558 29H143.142ZM131.142 29L137.55 19.856L140.286 21.752L135.318 29H131.142ZM141.15 21.2L138.438 19.376L143.142 12.2H147.318L141.15 21.2Z" fill="white"/>
<path d="M150.708 29.264C150.084 29.264 149.604 29.088 149.268 28.736C148.932 28.384 148.764 27.88 148.764 27.224C148.764 26.632 148.94 26.152 149.292 25.784C149.66 25.4 150.132 25.208 150.708 25.208C151.316 25.208 151.788 25.384 152.124 25.736C152.46 26.088 152.628 26.584 152.628 27.224C152.628 27.832 152.452 28.328 152.1 28.712C151.748 29.08 151.284 29.264 150.708 29.264ZM160.118 29.24C159.062 29.24 158.11 28.952 157.262 28.376C156.414 27.8 155.742 27.016 155.246 26.024C154.75 25.032 154.502 23.896 154.502 22.616C154.502 21.336 154.75 20.208 155.246 19.232C155.758 18.24 156.446 17.464 157.31 16.904C158.174 16.328 159.158 16.04 160.262 16.04C160.886 16.04 161.454 16.136 161.966 16.328C162.494 16.504 162.95 16.752 163.334 17.072C163.734 17.392 164.07 17.76 164.342 18.176C164.614 18.592 164.806 19.04 164.918 19.52L164.198 19.4V16.304H167.582V29H164.15V25.952L164.918 25.88C164.79 26.328 164.582 26.752 164.294 27.152C164.006 27.552 163.646 27.912 163.214 28.232C162.798 28.536 162.326 28.784 161.798 28.976C161.27 29.152 160.71 29.24 160.118 29.24ZM161.054 26.288C161.694 26.288 162.254 26.136 162.734 25.832C163.214 25.528 163.582 25.104 163.838 24.56C164.11 24 164.246 23.352 164.246 22.616C164.246 21.896 164.11 21.264 163.838 20.72C163.582 20.176 163.214 19.752 162.734 19.448C162.254 19.128 161.694 18.968 161.054 18.968C160.43 18.968 159.878 19.128 159.398 19.448C158.934 19.752 158.566 20.176 158.294 20.72C158.022 21.264 157.886 21.896 157.886 22.616C157.886 23.352 158.022 24 158.294 24.56C158.566 25.104 158.934 25.528 159.398 25.832C159.878 26.136 160.43 26.288 161.054 26.288ZM171.286 29V16.304H174.694V29H171.286ZM172.966 13.688C172.31 13.688 171.798 13.528 171.43 13.208C171.062 12.888 170.878 12.432 170.878 11.84C170.878 11.296 171.062 10.856 171.43 10.52C171.814 10.168 172.326 9.992 172.966 9.992C173.622 9.992 174.134 10.16 174.502 10.496C174.87 10.816 175.054 11.264 175.054 11.84C175.054 12.4 174.862 12.848 174.478 13.184C174.11 13.52 173.606 13.688 172.966 13.688Z" fill="url(#paint2_linear_51_14999)"/>
<defs>
<linearGradient id="paint0_linear_51_14999" x1="0" y1="0" x2="5.14175e-07" y2="40" gradientUnits="userSpaceOnUse">
<stop stop-color="#16EE9D"/>
<stop offset="1" stop-color="#08A0F3"/>
</linearGradient>
<linearGradient id="paint1_linear_51_14999" x1="0" y1="0" x2="5.14175e-07" y2="40" gradientUnits="userSpaceOnUse">
<stop stop-color="#16EE9D"/>
<stop offset="1" stop-color="#08A0F3"/>
</linearGradient>
<linearGradient id="paint2_linear_51_14999" x1="145.5" y1="12" x2="143.738" y2="28.6365" gradientUnits="userSpaceOnUse">
<stop stop-color="#16EE9D"/>
<stop offset="1" stop-color="#08A0F3"/>
</linearGradient>
</defs>
</svg>
