<svg width="513" height="369" viewBox="0 0 513 369" fill="none" xmlns="http://www.w3.org/2000/svg">
<path d="M420.697 367.869C420.697 367.869 468.515 343.784 474.328 297.257C476.631 279.304 469.612 273.611 456.012 265.072C441.096 255.657 443.29 239.893 447.786 225.223C452.612 209.349 454.038 195.336 448.993 178.915C424.316 98.3418 317.602 41.0865 239.184 28.9347C176.56 19.1915 104.833 39.0064 63.485 89.1459C50.7628 104.582 41.7694 122.755 37.9308 142.46C31.8987 174.098 42.7564 202.781 50.4337 233.105C58.1109 263.43 47.4725 292.003 51.7498 322.656C53.9433 338.311 57.0142 353.856 62.0593 368.854L420.697 367.869Z" fill="#1B2129"/>
<path fill-rule="evenodd" clip-rule="evenodd" d="M170.087 167.144C201.228 205.858 227.867 238.394 229.283 239.445C231.796 241.307 269.955 248.906 276.797 248.906C278.687 248.906 284.094 247.029 288.814 244.736L297.395 240.567L271.817 239.808C257.749 239.391 247.226 238.644 248.431 238.148C249.637 237.652 265.136 234.285 282.871 230.667L315.12 224.087L321.39 214.288C325.899 207.241 326.9 204.797 324.952 205.587C312.601 210.598 249.254 233.586 248.876 233.193C248.61 232.917 266.644 222.576 288.951 210.21C343.674 179.878 338.314 183.745 342.126 171.858C343.915 166.282 345.159 161.719 344.891 161.719C344.622 161.719 345.195 160.184 346.163 158.307C347.13 156.43 347.572 154.896 347.142 154.896C346.426 154.896 299.317 189.457 251.439 225.105C240.634 233.15 231.525 239.454 231.196 239.112C230.867 238.771 235.992 230.339 242.582 220.373C250.446 208.483 253.148 204.391 253.367 201.86C253.501 200.318 252.089 198.339 250.931 196.997C250.019 195.939 248.935 195.002 248.268 193.776C247.86 193.027 247.364 192.173 246.872 191.282C245.976 189.658 245.172 187.906 243.798 186.694C243.178 186.147 242.769 186.108 242.585 186.738C241.648 189.947 230.764 227.678 229.839 227.678C229.388 227.678 229.347 214.779 229.745 199.012L230.47 170.347L222.276 162.887C217.77 158.783 211.609 153.182 208.584 150.438C205.56 147.695 203.394 146.382 203.769 147.519C204.147 148.658 209.117 166.306 214.815 186.738C220.512 207.17 225.514 224.911 225.927 226.162C228.332 233.42 221.215 220.078 198.715 175.143L173.551 124.882L145.843 111.748C130.605 104.523 117.085 98.1936 115.8 97.6826C114.517 97.1716 138.945 128.429 170.087 167.144ZM191.064 244.755C187.02 246.617 184.13 248.941 184.143 250.324C184.171 253.24 186.989 258.16 187.022 255.351C187.037 254.03 189.944 253.455 196.615 253.455C204.819 253.455 210.294 255 234.982 264.285C258.476 273.12 266.412 276.89 278.08 284.755C285.945 290.057 292.64 294.395 292.959 294.395C293.276 294.395 292.925 292.181 292.177 289.478C289.858 281.084 289.806 281.106 305.068 283.99C312.907 285.472 320.294 286.712 321.486 286.749C322.678 286.785 320.08 283.573 315.713 279.611L309.741 274.194C308.949 273.476 309.342 272.162 310.397 271.995L314.276 271.384C317.854 270.82 325.056 270.259 330.281 270.137C338.77 269.939 333.974 268.573 285.27 257.308C255.288 250.374 225.69 244.26 219.498 243.722C213.305 243.184 205.936 242.477 203.122 242.151C199.982 241.787 195.326 242.793 191.064 244.755Z" fill="url(#paint0_linear_390_11139)"/>
<path fill-rule="evenodd" clip-rule="evenodd" d="M170.087 167.144C201.228 205.858 227.867 238.394 229.283 239.445C231.796 241.307 269.955 248.906 276.797 248.906C278.687 248.906 284.094 247.029 288.814 244.736L297.395 240.567L271.817 239.808C257.749 239.391 247.226 238.644 248.431 238.148C249.637 237.652 265.136 234.285 282.871 230.667L315.12 224.087L321.39 214.288C325.899 207.241 326.9 204.797 324.952 205.587C312.601 210.598 249.254 233.586 248.876 233.193C248.61 232.917 266.644 222.576 288.951 210.21C343.674 179.878 338.314 183.745 342.126 171.858C343.915 166.282 345.159 161.719 344.891 161.719C344.622 161.719 345.195 160.184 346.163 158.307C347.13 156.43 347.572 154.896 347.142 154.896C346.426 154.896 299.317 189.457 251.439 225.105C240.634 233.15 231.525 239.454 231.196 239.112C230.867 238.771 235.992 230.339 242.582 220.373C250.446 208.483 253.148 204.391 253.367 201.86C253.501 200.318 252.089 198.339 250.931 196.997C250.019 195.939 248.935 195.002 248.268 193.776C247.86 193.027 247.364 192.173 246.872 191.282C245.976 189.658 245.172 187.906 243.798 186.694C243.178 186.147 242.769 186.108 242.585 186.738C241.648 189.947 230.764 227.678 229.839 227.678C229.388 227.678 229.347 214.779 229.745 199.012L230.47 170.347L222.276 162.887C217.77 158.783 211.609 153.182 208.584 150.438C205.56 147.695 203.394 146.382 203.769 147.519C204.147 148.658 209.117 166.306 214.815 186.738C220.512 207.17 225.514 224.911 225.927 226.162C228.332 233.42 221.215 220.078 198.715 175.143L173.551 124.882L145.843 111.748C130.605 104.523 117.085 98.1936 115.8 97.6826C114.517 97.1716 138.945 128.429 170.087 167.144ZM191.064 244.755C187.02 246.617 184.13 248.941 184.143 250.324C184.171 253.24 186.989 258.16 187.022 255.351C187.037 254.03 189.944 253.455 196.615 253.455C204.819 253.455 210.294 255 234.982 264.285C258.476 273.12 266.412 276.89 278.08 284.755C285.945 290.057 292.64 294.395 292.959 294.395C293.276 294.395 292.925 292.181 292.177 289.478C289.858 281.084 289.806 281.106 305.068 283.99C312.907 285.472 320.294 286.712 321.486 286.749C322.678 286.785 320.08 283.573 315.713 279.611L309.741 274.194C308.949 273.476 309.342 272.162 310.397 271.995L314.276 271.384C317.854 270.82 325.056 270.259 330.281 270.137C338.77 269.939 333.974 268.573 285.27 257.308C255.288 250.374 225.69 244.26 219.498 243.722C213.305 243.184 205.936 242.477 203.122 242.151C199.982 241.787 195.326 242.793 191.064 244.755Z" fill="url(#paint1_linear_390_11139)"/>
<defs>
<linearGradient id="paint0_linear_390_11139" x1="115.752" y1="97.6764" x2="115.752" y2="294.395" gradientUnits="userSpaceOnUse">
<stop stop-color="#16EE9D"/>
<stop offset="1" stop-color="#08A0F3"/>
</linearGradient>
<linearGradient id="paint1_linear_390_11139" x1="115.752" y1="97.6764" x2="115.752" y2="294.395" gradientUnits="userSpaceOnUse">
<stop stop-color="#16EE9D"/>
<stop offset="1" stop-color="#08A0F3"/>
</linearGradient>
</defs>
</svg>
